<svg xmlns="http://www.w3.org/2000/svg" viewBox="0 0 64 64" width="64" height="64" role="img" aria-labelledby="title desc">
  <title id="title">Leadframe Library</title>
  <desc id="desc">Stylized leadframe with download arrow representing the online library.</desc>
  <rect x="3" y="3" width="58" height="58" rx="10" fill="#f5f7fa" stroke="#304455" stroke-width="2"/>
  <rect x="15" y="14" width="34" height="28" rx="4" fill="#1c6db2" stroke="#0f2f55" stroke-width="2"/>
  <g fill="#c8d2dc" stroke="#304455" stroke-width="1.5" stroke-linecap="round">
    <rect x="19" y="10" width="4" height="6" rx="1"/>
    <rect x="27" y="10" width="4" height="6" rx="1"/>
    <rect x="35" y="10" width="4" height="6" rx="1"/>
    <rect x="43" y="10" width="4" height="6" rx="1"/>
    <rect x="19" y="42" width="4" height="6" rx="1"/>
    <rect x="27" y="42" width="4" height="6" rx="1"/>
    <rect x="35" y="42" width="4" height="6" rx="1"/>
    <rect x="43" y="42" width="4" height="6" rx="1"/>
    <rect x="11" y="20" width="6" height="4" rx="1"/>
    <rect x="11" y="28" width="6" height="4" rx="1"/>
    <rect x="11" y="36" width="6" height="4" rx="1"/>
    <rect x="47" y="20" width="6" height="4" rx="1"/>
    <rect x="47" y="28" width="6" height="4" rx="1"/>
    <rect x="47" y="36" width="6" height="4" rx="1"/>
  </g>
  <rect x="21" y="22" width="22" height="12" rx="2" fill="#f3fafb" stroke="#0f2f55" stroke-width="1.8"/>
  <path d="M40 45v-6h4l-8-8-8 8h4v6z" fill="#0f2f55" stroke="#f5f7fa" stroke-width="1.2" stroke-linejoin="round"/>
  <circle cx="44.5" cy="44.5" r="9.5" fill="none" stroke="#0f2f55" stroke-width="2" stroke-dasharray="2 3"/>
</svg>
