<svg xmlns="http://www.w3.org/2000/svg" viewBox="0 0 64 64" width="64" height="64">
  <!-- Gear background -->
  <path d="M32 8 L35.5 8 L36.5 14 Q39 15 41 16.5 L46.5 13.5 L50 17 L47 22.5 Q48.5 24.5 49.5 27 L55.5 28 L55.5 31.5 L49.5 32.5 Q48.5 35 47 37 L50 42.5 L46.5 46 L41 43 Q39 44.5 36.5 45.5 L35.5 51.5 L28.5 51.5 L27.5 45.5 Q25 44.5 23 43 L17.5 46 L14 42.5 L17 37 Q15.5 35 14.5 32.5 L8.5 31.5 L8.5 28 L14.5 27 Q15.5 24.5 17 22.5 L14 17 L17.5 13.5 L23 16.5 Q25 15 27.5 14 L28.5 8 Z"
        fill="#607D8B" stroke="#455A64" stroke-width="1"/>
  <!-- Gear center hole -->
  <circle cx="32" cy="29.75" r="10" fill="#455A64"/>
  <!-- Chip body in gear center -->
  <rect x="25" y="23" width="14" height="14" rx="1.5" fill="#1565C0" stroke="#0D47A1" stroke-width="0.8"/>
  <!-- Chip pins left -->
  <rect x="22.5" y="25.5" width="3" height="2" rx="0.5" fill="#FFC107"/>
  <rect x="22.5" y="29.5" width="3" height="2" rx="0.5" fill="#FFC107"/>
  <rect x="22.5" y="33.5" width="3" height="2" rx="0.5" fill="#FFC107"/>
  <!-- Chip pins right -->
  <rect x="38.5" y="25.5" width="3" height="2" rx="0.5" fill="#FFC107"/>
  <rect x="38.5" y="29.5" width="3" height="2" rx="0.5" fill="#FFC107"/>
  <rect x="38.5" y="33.5" width="3" height="2" rx="0.5" fill="#FFC107"/>
  <!-- Chip pins top -->
  <rect x="27.5" y="20.5" width="2" height="3" rx="0.5" fill="#FFC107"/>
  <rect x="31.5" y="20.5" width="2" height="3" rx="0.5" fill="#FFC107"/>
  <!-- Chip pins bottom -->
  <rect x="27.5" y="36.5" width="2" height="3" rx="0.5" fill="#FFC107"/>
  <rect x="31.5" y="36.5" width="2" height="3" rx="0.5" fill="#FFC107"/>
  <!-- Die cross lines -->
  <line x1="27" y1="26" x2="37" y2="36" stroke="#42A5F5" stroke-width="0.8" opacity="0.7"/>
  <line x1="37" y1="26" x2="27" y2="36" stroke="#42A5F5" stroke-width="0.8" opacity="0.7"/>
</svg>
